<svg width="640" height="705" viewBox="0 0 640 705" fill="none" xmlns="http://www.w3.org/2000/svg">
<g opacity="0.2">
<path fill-rule="evenodd" clip-rule="evenodd" d="M332.732 1.25039C391.046 4.00854 445.314 18.5703 498.487 42.6679C565.24 72.9192 646.649 92.5682 679.164 158.248C712.657 225.905 707.712 316.575 664.852 378.723C623.963 438.012 530.58 420.697 470.636 460.619C414.892 497.742 398.626 587.928 332.732 599.904C266.341 611.971 206.78 558.953 152.865 518.376C99.8105 478.447 51.8848 431.735 27.3178 370.046C1.57022 305.391 -11.3792 232.112 12.8909 166.888C36.7161 102.86 94.5143 57.8467 155.179 26.4299C209.592 -1.74882 271.524 -1.64463 332.732 1.25039Z" fill="url(#paint0_linear)"/>
<path fill-rule="evenodd" clip-rule="evenodd" d="M388.599 102.348C449.176 107.423 482.465 173.287 524.306 217.385C557.813 252.699 580.309 292.662 607.493 333.046C648.299 393.669 742.357 442.367 723.221 512.894C704.417 582.2 601.66 580.343 533.925 604.192C486.313 620.956 437.413 617.864 388.599 630.714C314.374 650.253 246.032 726.725 174.54 698.796C105.331 671.76 72.8179 581.334 72.0061 507.036C71.2605 438.797 139.05 393.859 170.547 333.319C194.894 286.522 199.086 231.53 235.3 193.171C277.096 148.898 327.927 97.2643 388.599 102.348Z" fill="url(#paint1_linear)"/>
</g>
<defs>
<linearGradient id="paint0_linear" x1="350.548" y1="0" x2="350.548" y2="601.65" gradientUnits="userSpaceOnUse">
<stop stop-color="#5DBFBC"/>
<stop offset="1" stop-color="#5DBFBC" stop-opacity="0"/>
</linearGradient>
<linearGradient id="paint1_linear" x1="641" y1="392" x2="20" y2="492" gradientUnits="userSpaceOnUse">
<stop offset="0.0281022" stop-color="#E2ACD7"/>
<stop offset="1" stop-color="#C4C4C4" stop-opacity="0"/>
</linearGradient>
</defs>
</svg>
