<svg width="292" height="227" fill="none" xmlns="http://www.w3.org/2000/svg"><path fill-rule="evenodd" clip-rule="evenodd" d="M59.974 227h-.095l-4.29-7.94h2.071l2.334 4.936 2.166-4.936h1.937L59.975 227zm10.613-4.154c0-.753.18-1.435.548-2.089a3.94 3.94 0 0 1 1.532-1.467c.654-.363 1.389-.526 2.21-.526.82 0 1.55.163 2.19.526.639.357 1.135.847 1.493 1.467.353.62.53 1.307.53 2.089 0 .754-.177 1.469-.53 2.094a3.873 3.873 0 0 1-1.503 1.469 4.523 4.523 0 0 1-2.219.557c-.806 0-1.532-.161-2.18-.524a3.683 3.683 0 0 1-1.523-1.436c-.363-.625-.548-1.344-.548-2.16zm-22.165 3.92H46.69v-1.273c-.276.358-.672.72-1.193 1.011a3.565 3.565 0 0 1-1.77.458c-.735 0-1.398-.163-1.99-.492-.587-.296-1.054-.753-1.398-1.373-.338-.62-.515-1.34-.515-2.188 0-.849.181-1.569.534-2.189a3.97 3.97 0 0 1 1.437-1.469 4.135 4.135 0 0 1 2.008-.491c.659 0 1.232.129 1.714.424.486.263.877.654 1.178 1.111l.129-1.244h1.603v7.715h-.005zm69.867 0h-1.752v-1.211c-.372.424-.83.782-1.369 1.011a4.039 4.039 0 0 1-1.78.39c-.72 0-1.379-.162-1.961-.524a3.692 3.692 0 0 1-1.369-1.469c-.33-.62-.497-1.34-.497-2.155 0-.849.177-1.569.525-2.189a3.74 3.74 0 0 1 1.437-1.406 4.706 4.706 0 0 1 2.07-.458c.587 0 1.15.1 1.69.362.539.229.968.554 1.278.978v-7.744h1.732v14.415h-.004zm117.978 0h-1.736v-1.273c-.272.358-.668.72-1.193 1.011a3.54 3.54 0 0 1-1.771.458c-.734 0-1.398-.163-1.985-.492a3.214 3.214 0 0 1-1.398-1.373c-.343-.62-.515-1.34-.515-2.188 0-.849.177-1.569.535-2.189.353-.62.83-1.111 1.436-1.469a4.116 4.116 0 0 1 2.004-.491c.658 0 1.231.129 1.718.424.481.263.877.654 1.173 1.111l.129-1.244h1.603v7.715zm-65.5 0h-1.732v-1.273c-.276.358-.673.72-1.198 1.011a3.538 3.538 0 0 1-1.77.458c-.735 0-1.393-.163-1.985-.492-.592-.296-1.054-.753-1.398-1.373-.344-.62-.515-1.34-.515-2.188 0-.849.176-1.569.534-2.189a3.97 3.97 0 0 1 1.436-1.469 4.116 4.116 0 0 1 2.004-.491c.659 0 1.232.129 1.718.424.482.263.878.654 1.179 1.111l.129-1.244h1.603v7.715h-.005zm-162.173 0H6.862v-1.273c-.277.358-.673.72-1.193 1.011a3.564 3.564 0 0 1-1.77.458c-.735 0-1.399-.163-1.99-.492-.587-.296-1.055-.753-1.399-1.373-.339-.62-.51-1.34-.51-2.188 0-.849.176-1.569.53-2.189a3.97 3.97 0 0 1 1.435-1.469 4.135 4.135 0 0 1 2.01-.491c.658 0 1.23.129 1.717.424a3.29 3.29 0 0 1 1.174 1.111l.129-1.244h1.603v7.715h-.004zm121.619-1.306c.644 0 1.274-.23 1.885-.654l.801 1.273c-.41.262-.854.492-1.336.654-.477.162-.94.229-1.388.229a4.859 4.859 0 0 1-2.248-.525 3.798 3.798 0 0 1-1.484-1.469 4.255 4.255 0 0 1-.52-2.088c0-.787.191-1.469.568-2.094.377-.624.897-1.111 1.556-1.502.658-.362 1.379-.524 2.166-.524 1.007 0 1.847.295 2.529.882.677.586 1.14 1.407 1.389 2.451l-6.123 2.155c.225.358.526.687.907.883.377.233.811.329 1.298.329zm136.259.591a3.198 3.198 0 0 1-1.241.653 4.584 4.584 0 0 1-1.465.262c-.835 0-1.57-.162-2.209-.491-.639-.363-1.136-.815-1.493-1.44-.354-.62-.53-1.34-.53-2.122 0-.815.186-1.502.558-2.127.372-.624.868-1.077 1.489-1.44a4.251 4.251 0 0 1 2.018-.49c1.179 0 2.157.323 2.925.977l-.878 1.111a4.798 4.798 0 0 0-.858-.458 2.73 2.73 0 0 0-1.046-.195c-.458 0-.877.095-1.259.324a2.517 2.517 0 0 0-.897.949c-.215.391-.33.848-.33 1.339 0 .458.12.916.349 1.307a2.6 2.6 0 0 0 .94.949c.401.229.854.357 1.364.357.635 0 1.189-.195 1.656-.557l.907 1.092zm25.523.715h-1.732v-1.273c-.276.358-.673.72-1.193 1.011a3.56 3.56 0 0 1-1.77.458c-.735 0-1.398-.163-1.99-.492-.587-.296-1.054-.753-1.398-1.373-.338-.62-.515-1.34-.515-2.188 0-.849.181-1.569.535-2.189a3.962 3.962 0 0 1 1.436-1.469 4.135 4.135 0 0 1 2.009-.491c.658 0 1.231.129 1.712.424.487.263.878.654 1.179 1.111l.129-1.244H292v7.715h-.005zm-73.673 0h-1.738v-6.142h-1.326v-1.568h1.326v-3.238c0-1.145.254-1.994.764-2.58.511-.587 1.255-.882 2.238-.882.272 0 .567.034.878.1.31.101.587.196.821.358l-.745 1.273c-.186-.229-.448-.33-.782-.33-.473 0-.831.163-1.074.492-.243.329-.362.849-.362 1.569v3.238h2.461v1.568h-2.461v6.142zm-16.248 0h-1.737v-7.71h1.565l.114 1.501a2.915 2.915 0 0 1 1.232-1.306c.548-.329 1.178-.491 1.884-.491.721 0 1.322.229 1.794.653.473.425.716.978.731 1.669v5.684h-1.756v-5.098c-.024-.424-.153-.781-.392-1.01-.233-.263-.586-.391-1.063-.391-.683 0-1.251.262-1.699.815-.449.553-.673 1.24-.673 2.088v3.596zm-113.613 0H86.73v-7.71h1.546l.129 1.831c.2-.425.482-.782.85-1.111a4.14 4.14 0 0 1 1.168-.754c.41-.162.773-.262 1.084-.262l-.077 1.731c-.558-.033-1.064.066-1.522.329a2.65 2.65 0 0 0-1.064 1.01 2.85 2.85 0 0 0-.382 1.407v3.529zm187.282 0h-1.732v-7.71h1.732v7.71zm-29.417 0h-1.737v-7.71h1.57l.11 1.501a2.912 2.912 0 0 1 1.231-1.306c.549-.329 1.178-.491 1.885-.491.72 0 1.321.229 1.794.653.472.425.716.978.73 1.669v5.684h-1.756v-5.098c-.024-.424-.153-.781-.391-1.01-.239-.263-.592-.391-1.065-.391-.682 0-1.25.262-1.698.815-.449.553-.673 1.24-.673 2.088v3.596zm-91.806 0h-1.733v-14.41h1.733v14.41zm-124.044 0h-1.732v-6.142h-1.326v-1.568h1.326v-3.238c0-1.145.253-1.994.764-2.58.51-.587 1.254-.882 2.237-.882.277 0 .568.034.878.1.31.101.588.196.821.358l-.744 1.273c-.186-.229-.449-.33-.787-.33-.473 0-.826.163-1.07.492-.243.329-.367.849-.367 1.569v3.238h2.462v1.568h-2.462v6.142zm161.544 0h-1.737v-7.71h1.737v7.71zm-187.664-1.24c.635 0 1.179-.162 1.637-.525.453-.362.74-.848.869-1.439v-1.536c-.148-.553-.463-.982-.931-1.339a2.796 2.796 0 0 0-1.627-.526c-.458 0-.888.134-1.279.358a2.558 2.558 0 0 0-.93.916 2.848 2.848 0 0 0-.344 1.373c0 .525.12.949.353 1.374.234.424.554.719.95.981.396.234.83.363 1.302.363zm67.982-2.646c0 .458.11.916.33 1.34.214.391.515.719.896.948a2.39 2.39 0 0 0 1.26.358c.72 0 1.317-.262 1.79-.753.472-.524.71-1.145.71-1.893 0-.787-.234-1.407-.71-1.927-.473-.525-1.07-.781-1.79-.781-.472 0-.897.133-1.27.391a2.532 2.532 0 0 0-.887.948c-.22.419-.33.878-.33 1.369zm-28.153 2.646c.635 0 1.179-.162 1.637-.525.453-.362.744-.848.868-1.439v-1.536c-.152-.553-.463-.982-.93-1.339a2.796 2.796 0 0 0-1.627-.526c-.459 0-.888.134-1.275.358a2.571 2.571 0 0 0-.935.916 2.848 2.848 0 0 0-.343 1.373c0 .525.12.949.353 1.374.234.424.553.719.95.981.4.234.835.363 1.302.363zm243.573 0c.635 0 1.179-.162 1.637-.525.453-.362.744-.848.868-1.439v-1.536c-.152-.553-.463-.982-.93-1.339a2.798 2.798 0 0 0-1.627-.526c-.459 0-.888.134-1.274.358a2.569 2.569 0 0 0-.936.916 2.848 2.848 0 0 0-.343 1.373c0 .525.119.949.353 1.374.234.424.553.719.949.981.396.234.831.363 1.303.363zm-121.223 0c.634 0 1.178-.162 1.632-.525.453-.362.744-.848.868-1.439v-1.536c-.152-.553-.463-.982-.935-1.339a2.793 2.793 0 0 0-1.623-.526c-.462 0-.887.134-1.278.358a2.525 2.525 0 0 0-.931.916 2.852 2.852 0 0 0-.348 1.373c0 .525.119.949.358 1.374.233.424.553.719.954.981.391.234.83.363 1.303.363zm65.5 0c.634 0 1.178-.162 1.632-.525.453-.362.744-.848.868-1.439v-1.536c-.148-.553-.458-.982-.93-1.339a2.795 2.795 0 0 0-1.622-.526c-.463 0-.888.134-1.279.358a2.525 2.525 0 0 0-.931.916 2.808 2.808 0 0 0-.348 1.373c0 .525.119.949.358 1.374.234.424.553.719.954.981.387.234.825.363 1.298.363zm-118.112-.066c.673 0 1.24-.162 1.708-.525.467-.357.768-.849.906-1.468v-1.441a2.497 2.497 0 0 0-.954-1.373c-.482-.358-1.04-.524-1.66-.524-.473 0-.907.1-1.303.328a2.597 2.597 0 0 0-.95.949 2.8 2.8 0 0 0-.352 1.373c0 .491.118.95.352 1.374.234.391.554.72.95.949.396.262.835.358 1.303.358zm16.156-5.327c-.711 0-1.293.229-1.755.754-.459.491-.692 1.11-.692 1.892 0 .162.004.33.019.425l4.494-1.669a2.483 2.483 0 0 0-.796-1.011c-.334-.257-.759-.391-1.27-.391zm60.071-3.857c0-.263.109-.492.319-.688.21-.162.453-.261.73-.261.277 0 .516.099.721.261a.92.92 0 0 1 .305.688c0 .295-.105.524-.305.686a1.009 1.009 0 0 1-.721.295c-.277 0-.515-.099-.73-.295-.21-.162-.319-.391-.319-.686zm83.732 0c0-.263.105-.492.315-.688.215-.162.453-.261.725-.261.277 0 .516.099.721.261a.92.92 0 0 1 .305.688c0 .295-.1.524-.305.686a1.035 1.035 0 0 1-1.446 0c-.215-.162-.315-.391-.315-.686zm-166.73-14.93h-7.415v-56.339h.381l40.115 41.208-.152-39.573h7.343v56.501h-.224l-40.191-40.75.143 38.953zm-52.097-19.379c0 2.417.582 4.606 1.742 6.571 1.159 1.926 2.739 3.467 4.728 4.606 1.995 1.111 4.204 1.697 6.623 1.697 2.524 0 4.805-.553 6.853-1.664 2.042-1.111 3.645-2.647 4.81-4.606 1.159-1.96 1.74-4.182 1.74-6.6v-35.324h7.192V182.2c0 3.887-.912 7.32-2.73 10.329-1.813 3.004-4.29 5.326-7.415 6.961-3.125 1.636-6.609 2.452-10.445 2.452-3.784 0-7.239-.816-10.369-2.452-3.125-1.635-5.587-3.952-7.377-6.961-1.794-3.009-2.686-6.438-2.686-10.329v-35.553h7.343v35.32h-.009zm103.282-7.945c0-4.968 1.265-9.608 3.784-13.923 2.524-4.282 5.917-7.682 10.178-10.228 4.266-2.551 8.923-3.825 13.962-3.825 4.996 0 9.639 1.274 13.928 3.825 4.29 2.551 7.706 5.946 10.254 10.228 2.548 4.315 3.823 8.955 3.823 13.923 0 5.064-1.265 9.704-3.785 14.02-2.524 4.282-5.94 7.648-10.254 10.166-4.318 2.484-8.97 3.724-13.966 3.724-5.044 0-9.711-1.211-14-3.69-4.29-2.485-7.683-5.851-10.178-10.1-2.5-4.248-3.746-8.955-3.746-14.12zm74.366 27.324h-7.343v-54.704h7.343v54.704zm-195.99-47.651H7.424v16.632h25.204v7.024H7.424v16.861h29.289v7.124H.086v-54.703h36.627v7.062zm255.282 47.651h-8.474l-5.678-14.377h-21.038l-5.827 14.377h-7.267l23.915-56.959h.454l23.915 56.959zm-126.09-27.223c0 3.724.906 7.191 2.724 10.357 1.814 3.171 4.3 5.683 7.454 7.548 3.154 1.864 6.594 2.809 10.331 2.809 3.736 0 7.152-.916 10.253-2.776 3.102-1.831 5.55-4.349 7.344-7.548 1.794-3.2 2.687-6.7 2.687-10.491 0-3.757-.907-7.286-2.725-10.49-1.813-3.233-4.29-5.784-7.415-7.648-3.13-1.865-6.561-2.814-10.293-2.814-3.731 0-7.166.95-10.292 2.843-3.13 1.893-5.588 4.444-7.382 7.677-1.789 3.247-2.686 6.742-2.686 10.533zm109.438 6.504l-7.798-19.97-8.102 19.97h15.9zM146.012.009h.22c.338 0 .677.034 1.016.034 7.405.162 14.415 1.764 21.024 4.802 11.542 5.197 21.367 14.214 27.098 25.75 2.257 4.51 3.841 9.345 4.752 14.314.63 3.3.94 6.7.94 10.166 0 7.024-1.236 13.657-3.717 19.899a52.997 52.997 0 0 1-1.608 3.757c-2.18 4.544-5.015 8.76-8.369 12.55a56.304 56.304 0 0 1-9.133 8.269c-6.461 4.673-13.91 8.006-21.773 9.508-3.388.653-6.828.949-10.269.949h-.234c-9.929 0-19.11-2.451-27.551-7.286-8.436-4.869-15.116-11.502-20.031-19.87-4.9-8.364-7.353-17.582-7.373-27.681v-.562l.005-.034v-.1c.09-8.921 2.248-17.285 6.47-25.063 4.276-8.073 10.508-15.163 18.214-20.26 2.916-1.927 6.012-3.596 9.238-4.902C131.506 1.407 138.52 0 145.959 0h.053v.01zm-.773 95.974c.339.033.682.033 1.026.033 7.343 0 14.071-1.83 20.174-5.455 6.103-3.595 10.923-8.564 14.449-14.867 3.521-6.309 5.287-13.17 5.287-20.619 0-7.42-1.785-14.315-5.359-20.686-3.574-6.337-8.441-11.339-14.596-15.034-6.156-3.662-12.908-5.489-20.251-5.489-7.349 0-14.095 1.865-20.255 5.59-6.156 3.724-10.995 8.758-14.521 15.095-3.521 6.342-5.287 13.238-5.287 20.686 0 7.353 1.785 14.148 5.359 20.39a45.908 45.908 0 0 0 2.514 3.89c6.165 4.674 13.294 7.812 21.249 7.058 9.524-.915 18.108-6.995 24.936-13.857 4.681-4.706 8.99-10.557 7.768-17.486-1.107-6.308-5.873-11.83-10.344-14.606-1.437-.882-3.102-1.501-4.825-1.406-2.767.196-5.153 1.926-7.133 3.662 3.225-1.211 7.334-.033 9.696 3.138 1.679 2.255 2.409 5.226 1.66 7.94-1.675 6.079-8.99 9.903-14.701 8.14-2.839-.883-5.211-2.943-7.062-5.232-3.135-3.92-4.767-9.15-3.216-14.086 1.054-3.333 3.359-6.175 5.988-8.497 4.562-4.053 10.469-7.058 16.801-6.504 7.124.62 13.37 5.884 17.665 11.239 6.146 7.715 9.304 18.039 5.282 28.2-2.844 7.158-8.308 12.975-14.086 17.91-5.421 4.616-11.562 8.569-18.218 10.853z" fill="#fff"/></svg>