<svg width="160" height="57" viewBox="0 0 160 57" fill="none" xmlns="http://www.w3.org/2000/svg">
<rect width="160" height="57" rx="3" fill="#4065B4"/>
<path d="M61.858 15.06C59.408 15.06 57.798 16.264 57.798 18.154C57.798 21.612 62.922 20.674 62.922 22.158C62.922 22.606 62.53 22.816 61.914 22.816C60.906 22.816 59.268 22.172 58.26 21.318L57.168 23.53C58.4 24.496 60.22 25.084 61.886 25.084C64.084 25.084 65.932 24.09 65.932 22.004C65.932 18.462 60.808 19.316 60.808 17.874C60.808 17.51 61.13 17.342 61.62 17.342C62.446 17.342 63.874 17.86 64.882 18.434L65.96 16.194C64.896 15.508 63.356 15.06 61.858 15.06ZM71.0318 14.962L68.5818 14.15L67.0838 16.67H69.1558L71.0318 14.962ZM69.8558 25V17.384H67.0278V25H69.8558ZM79.0149 17.384H76.2149V18.21C75.7249 17.622 75.0109 17.286 74.1149 17.286C72.2809 17.286 70.9789 18.714 70.9789 20.884C70.9789 23.11 72.3229 24.566 74.1709 24.566C75.0389 24.566 75.7249 24.244 76.2149 23.656V24.426C76.2149 25.168 75.6129 25.644 74.5909 25.644C73.8069 25.644 72.9249 25.392 72.2529 24.944L71.3149 26.848C72.1409 27.394 73.4149 27.842 74.8289 27.842C77.3209 27.842 79.0149 26.484 79.0149 24.342V17.384ZM74.9129 22.536C74.1429 22.536 73.6249 21.906 73.6249 20.968C73.6249 20.016 74.1429 19.372 74.9129 19.372C75.6969 19.372 76.2149 20.002 76.2149 20.968C76.2149 21.906 75.6969 22.536 74.9129 22.536ZM88.33 17.384H85.502V21.15C85.502 22.018 85.054 22.62 84.326 22.634C83.71 22.634 83.304 22.158 83.304 21.416V17.384H80.476V22.214C80.476 23.992 81.568 25.126 83.164 25.126C84.186 25.126 84.984 24.678 85.502 23.866V25H88.33V17.384ZM93.4676 17.286C91.0596 17.286 89.4496 18.84 89.4496 21.22C89.4496 23.558 91.0036 25.098 93.5516 25.098C94.9936 25.098 96.1416 24.608 96.9396 23.726L95.4696 22.284C94.9656 22.746 94.3916 23.012 93.7896 23.012C93.0616 23.012 92.5296 22.606 92.3056 21.878H97.4296C97.5976 19.078 96.1416 17.286 93.4676 17.286ZM92.2496 20.492C92.3896 19.722 92.8376 19.204 93.4956 19.204C94.1816 19.204 94.6576 19.736 94.6436 20.492H92.2496ZM103.819 17.272C102.755 17.272 101.929 17.72 101.397 18.56V17.384H98.5688V25H101.397V21.234C101.397 20.366 101.873 19.764 102.643 19.75C103.301 19.75 103.735 20.226 103.735 20.982V25H106.563V20.17C106.563 18.406 105.443 17.272 103.819 17.272ZM111.711 17.286C109.149 17.286 107.469 18.826 107.469 21.192C107.469 23.544 109.149 25.098 111.711 25.098C114.273 25.098 115.939 23.544 115.939 21.192C115.939 18.826 114.273 17.286 111.711 17.286ZM111.711 19.526C112.537 19.526 113.083 20.212 113.083 21.22C113.083 22.242 112.537 22.914 111.711 22.914C110.871 22.914 110.325 22.242 110.325 21.22C110.325 20.212 110.871 19.526 111.711 19.526ZM120.007 17.258C118.089 17.258 116.759 18.21 116.759 19.806C116.759 22.41 120.651 21.99 120.651 22.858C120.651 23.096 120.399 23.208 120.021 23.208C119.181 23.208 118.215 22.886 117.263 22.27L116.395 24.048C117.389 24.762 118.635 25.126 119.979 25.126C121.967 25.126 123.325 24.174 123.325 22.606C123.325 20.002 119.349 20.38 119.349 19.526C119.349 19.288 119.573 19.162 119.923 19.162C120.525 19.162 121.379 19.428 122.415 19.96L123.353 18.182C122.317 17.58 121.155 17.258 120.007 17.258ZM131.038 17.286C128.63 17.286 127.02 18.84 127.02 21.22C127.02 23.558 128.574 25.098 131.122 25.098C132.564 25.098 133.712 24.608 134.51 23.726L133.04 22.284C132.536 22.746 131.962 23.012 131.36 23.012C130.632 23.012 130.1 22.606 129.876 21.878H135C135.168 19.078 133.712 17.286 131.038 17.286ZM129.82 20.492C129.96 19.722 130.408 19.204 131.066 19.204C131.752 19.204 132.228 19.736 132.214 20.492H129.82ZM141.389 17.272C140.325 17.272 139.499 17.72 138.967 18.56V17.384H136.139V25H138.967V21.234C138.967 20.366 139.443 19.764 140.213 19.75C140.871 19.75 141.305 20.226 141.305 20.982V25H144.133V20.17C144.133 18.406 143.013 17.272 141.389 17.272ZM61.97 34.684C62.208 34.684 62.53 34.796 62.782 34.978L63.748 33.032C63.132 32.682 62.222 32.486 61.41 32.486C59.618 32.472 58.372 33.452 58.372 35.076V35.776H57.336V37.582H58.372V43H61.172V37.582H62.754V35.776H61.172V35.412C61.172 34.95 61.494 34.684 61.97 34.684ZM66.8521 35.272C65.6621 35.272 64.4301 35.552 63.1841 36.056L63.8841 37.932C64.7241 37.568 65.5781 37.386 66.1801 37.386C67.0481 37.386 67.4961 37.764 67.4961 38.394V38.422H65.6341C63.7161 38.45 62.6941 39.262 62.6941 40.732C62.6941 42.16 63.6461 43.126 65.2701 43.126C66.2781 43.126 67.0341 42.776 67.4961 42.16V43H70.2681V38.058C70.2681 36.294 68.9941 35.272 66.8521 35.272ZM66.2081 41.278C65.6621 41.278 65.3541 40.998 65.3541 40.522C65.3541 40.046 65.6481 39.808 66.2081 39.808H67.4961V40.494C67.2861 40.97 66.7821 41.278 66.2081 41.278ZM75.174 35.286C72.766 35.286 71.184 36.854 71.184 39.22C71.184 41.558 72.752 43.098 75.146 43.098C76.826 43.098 78.114 42.384 78.702 41.124L76.504 40.018C76.266 40.592 75.846 40.858 75.3 40.858C74.544 40.858 74.04 40.2 74.04 39.206C74.04 38.24 74.544 37.582 75.3 37.582C75.832 37.582 76.252 37.862 76.518 38.338L78.688 37.274C78.044 36.014 76.77 35.286 75.174 35.286ZM82.8992 35.286C80.4912 35.286 78.8812 36.84 78.8812 39.22C78.8812 41.558 80.4352 43.098 82.9832 43.098C84.4252 43.098 85.5732 42.608 86.3712 41.726L84.9012 40.284C84.3972 40.746 83.8232 41.012 83.2212 41.012C82.4932 41.012 81.9612 40.606 81.7372 39.878H86.8612C87.0292 37.078 85.5732 35.286 82.8992 35.286ZM81.6812 38.492C81.8212 37.722 82.2692 37.204 82.9272 37.204C83.6132 37.204 84.0892 37.736 84.0752 38.492H81.6812ZM92.9845 35.286C92.1305 35.286 91.4025 35.636 90.8985 36.266V32.612H88.0705V43H90.8985V42.118C91.4165 42.748 92.1585 43.098 93.0545 43.098C95.1545 43.098 96.5125 41.572 96.5125 39.234C96.5125 36.854 95.1125 35.286 92.9845 35.286ZM92.2705 40.858C91.4585 40.858 90.8985 40.172 90.8985 39.164C90.8985 38.156 91.4585 37.47 92.2705 37.47C93.1105 37.47 93.6565 38.156 93.6565 39.164C93.6565 40.172 93.1105 40.858 92.2705 40.858ZM101.293 35.286C98.7312 35.286 97.0512 36.826 97.0512 39.192C97.0512 41.544 98.7312 43.098 101.293 43.098C103.855 43.098 105.521 41.544 105.521 39.192C105.521 36.826 103.855 35.286 101.293 35.286ZM101.293 37.526C102.119 37.526 102.665 38.212 102.665 39.22C102.665 40.242 102.119 40.914 101.293 40.914C100.453 40.914 99.9072 40.242 99.9072 39.22C99.9072 38.212 100.453 37.526 101.293 37.526ZM110.289 35.286C107.727 35.286 106.047 36.826 106.047 39.192C106.047 41.544 107.727 43.098 110.289 43.098C112.851 43.098 114.517 41.544 114.517 39.192C114.517 36.826 112.851 35.286 110.289 35.286ZM110.289 37.526C111.115 37.526 111.661 38.212 111.661 39.22C111.661 40.242 111.115 40.914 110.289 40.914C109.449 40.914 108.903 40.242 108.903 39.22C108.903 38.212 109.449 37.526 110.289 37.526ZM119.103 40.354L120.489 43H123.835L121.035 38.324L123.821 35.384H120.629L118.529 37.666V32.612H115.701V43H118.529V40.956L119.103 40.354Z" fill="white"/>
<path d="M20.6875 27.75H16.3125C15.5469 27.75 15 28.3516 15 29.0625V42.1875C15 42.9531 15.5469 43.5 16.3125 43.5H20.6875C21.3984 43.5 22 42.9531 22 42.1875V29.0625C22 28.3516 21.3984 27.75 20.6875 27.75ZM18.5 41.3125C17.7344 41.3125 17.1875 40.7656 17.1875 40C17.1875 39.2891 17.7344 38.6875 18.5 38.6875C19.2109 38.6875 19.8125 39.2891 19.8125 40C19.8125 40.7656 19.2109 41.3125 18.5 41.3125ZM36 19.9844C36 15.9375 33.375 15.5 32.0625 15.5C30.9141 15.5 30.4219 17.6875 30.2031 18.6719C29.875 19.875 29.6016 21.0781 28.7812 21.8984C27.0312 23.7031 26.1016 25.9453 23.9141 28.0781C23.8047 28.2422 23.75 28.4062 23.75 28.5703V40.2734C23.75 40.6016 24.0234 40.875 24.3516 40.9297C25.2266 40.9297 26.375 41.4219 27.25 41.8047C29 42.5703 31.1328 43.5 33.7578 43.5H33.9219C36.2734 43.5 39.0625 43.5 40.1562 41.9141C40.6484 41.2578 40.7578 40.4375 40.4844 39.4531C41.4141 38.5234 41.8516 36.7734 41.4141 35.3516C42.3438 34.0938 42.4531 32.2891 41.9062 31.0312C42.5625 30.375 43 29.3359 42.9453 28.3516C42.9453 26.6562 41.5234 25.125 39.7188 25.125H34.1406C34.5781 23.5938 36 22.2812 36 19.9844Z" fill="white"/>
</svg>
